<svg xmlns="http://www.w3.org/2000/svg" viewBox="0 0 36 36"><title>refresh</title><g id="Layer_2" data-name="Layer 2"><g id="Layer_1-2" data-name="Layer 1"><rect width="36" height="36" fill="none"/><path d="M17.71,6.7a.41.41,0,0,1,.58,0l4.77,4.78a.38.38,0,0,1,.12.28.4.4,0,0,1-.12.29l-4.77,4.77a.41.41,0,0,1-.58,0L16.59,15.7a.38.38,0,0,1-.12-.28.44.44,0,0,1,.15-.32l2.53-2.29a6,6,0,0,0-2.86.13,5.95,5.95,0,0,0-4,7.22,5.95,5.95,0,0,0,7.28,4.23,6,6,0,0,0,3.9-3.33,5.45,5.45,0,0,0,.49-2,.56.56,0,0,1,.13-.28.4.4,0,0,1,.3-.1H26a.38.38,0,0,1,.28.13.36.36,0,0,1,.11.3,8.21,8.21,0,0,1-.7,2.93,8.07,8.07,0,0,1-1.74,2.56,8.24,8.24,0,0,1-3.76,2.16,8.62,8.62,0,0,1-4.31,0,8.17,8.17,0,0,1-3.76-2.16A8.26,8.26,0,0,1,9.92,20.8a8.55,8.55,0,0,1,0-4.32,8.39,8.39,0,0,1,5.22-5.72,8.47,8.47,0,0,1,3.53-.48L16.62,8.42a.42.42,0,0,1-.15-.31.4.4,0,0,1,.12-.29Z"/></g></g></svg>